<?xml version="1.0" encoding="UTF-8"?>
<svg width="20px" height="19px" viewBox="0 0 20 19" version="1.1" xmlns="http://www.w3.org/2000/svg" xmlns:xlink="http://www.w3.org/1999/xlink">
    <title>8F935051-2D14-4BCC-9C1D-E969375D40FF</title>
    <g id="Page-1" stroke="none" stroke-width="1" fill="none" fill-rule="evenodd">
        <g id="Desktop-HD" transform="translate(-762.000000, -563.000000)" fill="#FFFFFF" fill-rule="nonzero">
            <g id="icon_prod" transform="translate(762.000000, 563.000000)">
                <path d="M19.50606,1.98198 C17.01252,5.68932 9.50166,13.188 9.50166,13.188 L9.49872,13.18506 C9.48108,13.20438 9.46512,13.22454 9.44622,13.24344 C8.97414,13.71468 8.33364,13.90536 7.71834,13.8327 C7.91616,14.66094 7.70742,15.57024 7.07616,16.21746 C7.07616,16.21746 3.91776,20.12304 0.41748,17.66226 C0.41748,17.66226 2.30496,17.13348 2.46918,15.61056 C2.46918,15.61056 2.21718,14.07588 3.60276,12.65376 C4.22394,12.0162 5.09292,11.79738 5.88966,11.98344 C5.82582,11.37696 6.01692,10.74864 6.48228,10.2837 C6.50076,10.2648 6.52134,10.24884 6.54066,10.23078 L6.53772,10.22784 C6.53772,10.22784 14.04396,2.72496 17.75676,0.23478 C18.24816,-0.11676 18.93444,-0.0756 19.37544,0.36498 C19.8177,0.8064 19.85844,1.49142 19.50606,1.98198 Z M6.49152,13.22412 C6.17988,12.91248 5.77584,12.73482 5.34366,12.73482 C4.9098,12.73482 4.49988,12.90954 4.19118,13.22664 C3.12648,14.31948 3.28608,15.57192 3.29028,15.61098 C3.19872,16.45938 2.71782,17.1822 2.21634,17.6169 C2.39358,17.64924 2.57292,17.66562 2.75604,17.66562 C4.75104,17.66562 6.43188,15.70842 6.44742,15.68994 C6.44784,15.68994 7.5978,14.33082 6.49152,13.22412 Z M6.71748,11.76336 C6.71748,12.09768 6.83886,12.41268 7.07616,12.64914 C7.31346,12.88602 7.64232,13.02336 7.97748,13.02336 C8.31264,13.02336 8.61546,12.88644 8.8452,12.65628 L9.49788,11.99688 C9.53106,11.96286 9.57642,11.91666 9.61296,11.87928 L7.85022,10.11654 C7.81158,10.15392 7.76412,10.1997 7.72968,10.23372 L7.07574,10.87926 C6.83886,11.1153 6.71748,11.42904 6.71748,11.76336 Z M18.7824,0.96012 C18.67782,0.85554 18.5556,0.84 18.49134,0.84 C18.4023,0.84 18.31746,0.86688 18.22464,0.93324 C15.61308,2.68464 10.66506,7.38738 8.43822,9.5445 L10.185,11.29128 C12.3438,9.06696 17.05788,4.11642 18.82356,1.49184 C18.94284,1.32636 18.92562,1.1025 18.7824,0.96012 Z" id="Shape"></path>
            </g>
        </g>
    </g>
</svg>