<?xml version="1.0" encoding="UTF-8"?>
<svg width="20px" height="20px" viewBox="0 0 20 20" version="1.1" xmlns="http://www.w3.org/2000/svg" xmlns:xlink="http://www.w3.org/1999/xlink">
    <title>E098A281-CAA8-49F7-84FA-56578561C338</title>
    <g id="Page-1" stroke="none" stroke-width="1" fill="none" fill-rule="evenodd">
        <g id="Desktop-HD" transform="translate(-1002.000000, -562.000000)" fill="#FFFFFF" fill-rule="nonzero">
            <g id="icon_ux" transform="translate(1002.000000, 562.000000)">
                <path d="M7.7,0 C3.4545,0 0,3.4545 0,7.7 C0,11.9455 3.4545,15.4 7.7,15.4 C11.9455,15.4 15.4,11.9455 15.4,7.7 C15.4,3.4545 11.9455,0 7.7,0 Z M7.7,14 C4.2266,14 1.4,11.1741 1.4,7.7 C1.4,4.2266 4.2266,1.4 7.7,1.4 C11.1741,1.4 14,4.2266 14,7.7 C14,11.1741 11.1741,14 7.7,14 Z" id="Shape"></path>
                <path d="M19.3949,18.4051 L15.1942,14.2051 C14.9205,13.9314 14.4781,13.9314 14.2044,14.2051 C13.9307,14.4788 13.9307,14.9212 14.2044,15.1949 L18.4051,19.3949 C18.5416,19.5314 18.7208,19.6 18.9,19.6 C19.0792,19.6 19.2584,19.5314 19.3949,19.3949 C19.6686,19.1212 19.6686,18.6788 19.3949,18.4051 Z" id="Path"></path>
            </g>
        </g>
    </g>
</svg>